<svg width="259" height="73" viewBox="0 0 259 73" fill="none" xmlns="http://www.w3.org/2000/svg">
<path d="M35.6094 3.75V72H21.5938V3.75H35.6094ZM56.6094 3.75V14.7656H0.921875V3.75H56.6094ZM53.4688 47.1562V46.1719C53.4688 42.4531 54 39.0312 55.0625 35.9062C56.125 32.75 57.6719 30.0156 59.7031 27.7031C61.7344 25.3906 64.2344 23.5938 67.2031 22.3125C70.1719 21 73.5781 20.3438 77.4219 20.3438C81.2656 20.3438 84.6875 21 87.6875 22.3125C90.6875 23.5938 93.2031 25.3906 95.2344 27.7031C97.2969 30.0156 98.8594 32.75 99.9219 35.9062C100.984 39.0312 101.516 42.4531 101.516 46.1719V47.1562C101.516 50.8438 100.984 54.2656 99.9219 57.4219C98.8594 60.5469 97.2969 63.2812 95.2344 65.625C93.2031 67.9375 90.7031 69.7344 87.7344 71.0156C84.7656 72.2969 81.3594 72.9375 77.5156 72.9375C73.6719 72.9375 70.25 72.2969 67.25 71.0156C64.2812 69.7344 61.7656 67.9375 59.7031 65.625C57.6719 63.2812 56.125 60.5469 55.0625 57.4219C54 54.2656 53.4688 50.8438 53.4688 47.1562ZM66.9688 46.1719V47.1562C66.9688 49.2812 67.1562 51.2656 67.5312 53.1094C67.9062 54.9531 68.5 56.5781 69.3125 57.9844C70.1562 59.3594 71.25 60.4375 72.5938 61.2188C73.9375 62 75.5781 62.3906 77.5156 62.3906C79.3906 62.3906 81 62 82.3438 61.2188C83.6875 60.4375 84.7656 59.3594 85.5781 57.9844C86.3906 56.5781 86.9844 54.9531 87.3594 53.1094C87.7656 51.2656 87.9688 49.2812 87.9688 47.1562V46.1719C87.9688 44.1094 87.7656 42.1719 87.3594 40.3594C86.9844 38.5156 86.375 36.8906 85.5312 35.4844C84.7188 34.0469 83.6406 32.9219 82.2969 32.1094C80.9531 31.2969 79.3281 30.8906 77.4219 30.8906C75.5156 30.8906 73.8906 31.2969 72.5469 32.1094C71.2344 32.9219 70.1562 34.0469 69.3125 35.4844C68.5 36.8906 67.9062 38.5156 67.5312 40.3594C67.1562 42.1719 66.9688 44.1094 66.9688 46.1719ZM139.766 60.9375V0H153.359V72H141.125L139.766 60.9375ZM107.703 47.25V46.2656C107.703 42.3906 108.141 38.875 109.016 35.7188C109.891 32.5312 111.172 29.7969 112.859 27.5156C114.547 25.2344 116.625 23.4688 119.094 22.2188C121.562 20.9688 124.375 20.3438 127.531 20.3438C130.5 20.3438 133.094 20.9688 135.312 22.2188C137.562 23.4688 139.469 25.25 141.031 27.5625C142.625 29.8438 143.906 32.5469 144.875 35.6719C145.844 38.7656 146.547 42.1562 146.984 45.8438V48C146.547 51.5312 145.844 54.8125 144.875 57.8438C143.906 60.875 142.625 63.5312 141.031 65.8125C139.469 68.0625 137.562 69.8125 135.312 71.0625C133.062 72.3125 130.438 72.9375 127.438 72.9375C124.281 72.9375 121.469 72.2969 119 71.0156C116.562 69.7344 114.5 67.9375 112.812 65.625C111.156 63.3125 109.891 60.5938 109.016 57.4688C108.141 54.3438 107.703 50.9375 107.703 47.25ZM121.203 46.2656V47.25C121.203 49.3438 121.359 51.2969 121.672 53.1094C122.016 54.9219 122.562 56.5312 123.312 57.9375C124.094 59.3125 125.094 60.3906 126.312 61.1719C127.562 61.9219 129.078 62.2969 130.859 62.2969C133.172 62.2969 135.078 61.7812 136.578 60.75C138.078 59.6875 139.219 58.2344 140 56.3906C140.812 54.5469 141.281 52.4219 141.406 50.0156V43.875C141.312 41.9062 141.031 40.1406 140.562 38.5781C140.125 36.9844 139.469 35.625 138.594 34.5C137.75 33.375 136.688 32.5 135.406 31.875C134.156 31.25 132.672 30.9375 130.953 30.9375C129.203 30.9375 127.703 31.3438 126.453 32.1562C125.203 32.9375 124.188 34.0156 123.406 35.3906C122.656 36.7656 122.094 38.3906 121.719 40.2656C121.375 42.1094 121.203 44.1094 121.203 46.2656ZM161.75 47.1562V46.1719C161.75 42.4531 162.281 39.0312 163.344 35.9062C164.406 32.75 165.953 30.0156 167.984 27.7031C170.016 25.3906 172.516 23.5938 175.484 22.3125C178.453 21 181.859 20.3438 185.703 20.3438C189.547 20.3438 192.969 21 195.969 22.3125C198.969 23.5938 201.484 25.3906 203.516 27.7031C205.578 30.0156 207.141 32.75 208.203 35.9062C209.266 39.0312 209.797 42.4531 209.797 46.1719V47.1562C209.797 50.8438 209.266 54.2656 208.203 57.4219C207.141 60.5469 205.578 63.2812 203.516 65.625C201.484 67.9375 198.984 69.7344 196.016 71.0156C193.047 72.2969 189.641 72.9375 185.797 72.9375C181.953 72.9375 178.531 72.2969 175.531 71.0156C172.562 69.7344 170.047 67.9375 167.984 65.625C165.953 63.2812 164.406 60.5469 163.344 57.4219C162.281 54.2656 161.75 50.8438 161.75 47.1562ZM175.25 46.1719V47.1562C175.25 49.2812 175.438 51.2656 175.812 53.1094C176.188 54.9531 176.781 56.5781 177.594 57.9844C178.438 59.3594 179.531 60.4375 180.875 61.2188C182.219 62 183.859 62.3906 185.797 62.3906C187.672 62.3906 189.281 62 190.625 61.2188C191.969 60.4375 193.047 59.3594 193.859 57.9844C194.672 56.5781 195.266 54.9531 195.641 53.1094C196.047 51.2656 196.25 49.2812 196.25 47.1562V46.1719C196.25 44.1094 196.047 42.1719 195.641 40.3594C195.266 38.5156 194.656 36.8906 193.812 35.4844C193 34.0469 191.922 32.9219 190.578 32.1094C189.234 31.2969 187.609 30.8906 185.703 30.8906C183.797 30.8906 182.172 31.2969 180.828 32.1094C179.516 32.9219 178.438 34.0469 177.594 35.4844C176.781 36.8906 176.188 38.5156 175.812 40.3594C175.438 42.1719 175.25 44.1094 175.25 46.1719ZM245.516 57.9844C245.516 57.0156 245.234 56.1406 244.672 55.3594C244.109 54.5781 243.062 53.8594 241.531 53.2031C240.031 52.5156 237.859 51.8906 235.016 51.3281C232.453 50.7656 230.062 50.0625 227.844 49.2188C225.656 48.3438 223.75 47.2969 222.125 46.0781C220.531 44.8594 219.281 43.4219 218.375 41.7656C217.469 40.0781 217.016 38.1562 217.016 36C217.016 33.875 217.469 31.875 218.375 30C219.312 28.125 220.641 26.4688 222.359 25.0312C224.109 23.5625 226.234 22.4219 228.734 21.6094C231.266 20.7656 234.109 20.3438 237.266 20.3438C241.672 20.3438 245.453 21.0469 248.609 22.4531C251.797 23.8594 254.234 25.7969 255.922 28.2656C257.641 30.7031 258.5 33.4844 258.5 36.6094H245C245 35.2969 244.719 34.125 244.156 33.0938C243.625 32.0312 242.781 31.2031 241.625 30.6094C240.5 29.9844 239.031 29.6719 237.219 29.6719C235.719 29.6719 234.422 29.9375 233.328 30.4688C232.234 30.9688 231.391 31.6562 230.797 32.5312C230.234 33.375 229.953 34.3125 229.953 35.3438C229.953 36.125 230.109 36.8281 230.422 37.4531C230.766 38.0469 231.312 38.5938 232.062 39.0938C232.812 39.5938 233.781 40.0625 234.969 40.5C236.188 40.9062 237.688 41.2812 239.469 41.625C243.125 42.375 246.391 43.3594 249.266 44.5781C252.141 45.7656 254.422 47.3906 256.109 49.4531C257.797 51.4844 258.641 54.1562 258.641 57.4688C258.641 59.7188 258.141 61.7812 257.141 63.6562C256.141 65.5312 254.703 67.1719 252.828 68.5781C250.953 69.9531 248.703 71.0312 246.078 71.8125C243.484 72.5625 240.562 72.9375 237.312 72.9375C232.594 72.9375 228.594 72.0938 225.312 70.4062C222.062 68.7188 219.594 66.5781 217.906 63.9844C216.25 61.3594 215.422 58.6719 215.422 55.9219H228.219C228.281 57.7656 228.75 59.25 229.625 60.375C230.531 61.5 231.672 62.3125 233.047 62.8125C234.453 63.3125 235.969 63.5625 237.594 63.5625C239.344 63.5625 240.797 63.3281 241.953 62.8594C243.109 62.3594 243.984 61.7031 244.578 60.8906C245.203 60.0469 245.516 59.0781 245.516 57.9844Z" fill="#7A8DFD"/>
</svg>
